<?xml version="1.0" encoding="UTF-8"?>
<svg id="Layer_2" data-name="Layer 2" xmlns="http://www.w3.org/2000/svg" viewBox="0 0 320 320">
  <defs>
    <style>
      .cls-1 {
        fill-rule: evenodd;
      }

      .cls-1, .cls-2 {
        fill: #f17521;
      }

      .cls-3 {
        fill: #fff;
      }

      .cls-4 {
        fill: #f27123;
      }

      .cls-5 {
        fill: #182b4e;
      }

      .cls-6 {
        fill: #ef843c;
      }
    </style>
  </defs>
  <g id="Logo">
    <g>
      <rect class="cls-3" width="320" height="320" rx="32.65" ry="32.65"/>
      <g>
        <g id="Quiz">
          <path class="cls-5" d="m248.49,260.54l-15.61-17.97c7.11-3.94,12.87-9.03,17.28-15.28,4.41-6.25,7.65-13.49,9.71-21.71,2.06-8.22,3.09-17.15,3.09-26.8,0-14.47-2.32-27.07-6.95-37.8-4.63-10.73-11.92-19.04-21.85-24.95-9.93-5.9-22.84-8.85-38.7-8.85s-28.44,2.94-38.47,8.81c-10.03,5.87-17.44,14.16-22.23,24.85-4.79,10.7-7.19,23.28-7.19,37.75,0,10.85,1.33,20.69,4,29.52,2.67,8.82,6.76,16.39,12.28,22.71,5.52,6.32,12.55,11.17,21.09,14.57,8.54,3.39,18.65,5.09,30.33,5.09h1.33l7.55,10.07h44.34Zm-53.22-41.4c-6.66,0-12.06-1.62-16.19-4.86-4.13-3.24-7.14-7.87-9.05-13.9-1.9-6.03-2.86-13.23-2.86-21.61s.94-15.62,2.81-21.71c1.87-6.09,4.89-10.79,9.05-14.09,4.16-3.3,9.63-4.95,16.42-4.95,10.22,0,17.42,3.65,21.61,10.95,4.19,7.3,6.28,17.23,6.28,29.8,0,8.38-.9,15.58-2.71,21.61-1.81,6.03-4.76,10.66-8.85,13.9-4.09,3.24-9.6,4.86-16.52,4.86Z"/>
        </g>
        <g id="Bulb">
          <g>
            <path class="cls-2" d="m221.15,172.74c0-7.33-2.97-13.96-7.77-18.77-4.81-4.8-11.43-7.77-18.77-7.77-.13,0-.25,0-.38,0-7.23.1-13.76,3.13-18.5,7.94-4.74,4.81-7.66,11.39-7.66,18.6,0,.11,0,.21,0,.32.07,5.66,1.91,10.89,4.99,15.17,4.97,6.9,7.86,15.08,8.08,23.58h2.07c-.19-7.39-2.34-14.51-6.03-20.53-2.49-4.06-3.98-9.04-4.04-14.41-.02-1.75.12-3.45.39-5.11-.46-.09-.88-.26-1.25-.51-2.63-1.81-2.03-7.23,1.32-12.11,3.36-4.88,8.21-7.37,10.84-5.57.2.14.38.3.54.48,2.81-1.67,5.97-2.63,9.32-2.69,12-.2,21.78,11.16,21.78,25.21,0,5.6-1.56,10.77-4.19,14.96-3.7,5.88-5.71,12.99-5.89,20.29h2.07c.21-8.38,2.9-16.55,7.9-23.32,3.25-4.41,5.18-9.85,5.18-15.75Z"/>
            <rect class="cls-2" x="194.62" y="191.04" width=".51" height="20.77"/>
            <path class="cls-2" d="m186.06,183.65c.11.08.33.19.66.19h.69v-1.02c-.09-.07-.29-.19-.61-.2-.26.14-.64.67-.74,1.03Z"/>
            <path class="cls-6" d="m216.08,176.57c0-14.04-9.78-25.4-21.78-25.21-3.34.05-6.51,1.02-9.32,2.69,1.98,2.16,1.24,7.13-1.87,11.64-2.88,4.18-6.85,6.61-9.59,6.08-.27,1.65-.41,3.36-.39,5.11.05,5.38,1.54,10.35,4.04,14.41,3.69,6.02,5.84,13.14,6.03,20.53h4.19v-20.77h-.69c-4.35,0-7.9-3.26-7.9-7.27s3.38-8.36,7.9-8.36,7.9,3.26,7.9,7.27v1.16h.51v-1.16c0-4.01,3.54-7.27,7.9-7.27s7.9,4.42,7.9,8.36-3.54,7.27-7.9,7.27h-.69v20.77h3.68c.18-7.3,2.18-14.4,5.89-20.29,2.63-4.18,4.19-9.36,4.19-14.96Z"/>
            <path class="cls-2" d="m203.69,183.64c-.1-.35-.48-.89-.75-1.03-.32.02-.52.13-.61.2v1.02h.69c.34,0,.56-.11.67-.19Z"/>
            <path class="cls-2" d="m203.02,191.04c4.35,0,7.9-3.26,7.9-7.27s-3.38-8.36-7.9-8.36-7.9,3.26-7.9,7.27v1.16h-.51v-1.16c0-4.01-3.54-7.27-7.9-7.27s-7.9,4.42-7.9,8.36,3.54,7.27,7.9,7.27h.69v20.77h2.3v-23.07h-2.98c-1.12,0-2.17-.29-3.05-.8-.89-.51-1.62-1.25-2.07-2.17-.3-.61-.47-1.29-.47-2.01,0-.54.09-1.06.25-1.58.16-.51.38-1.01.67-1.49.57-.95,1.36-1.8,2.37-2.38.68-.38,1.46-.63,2.31-.63,1.12,0,2.17.29,3.05.8.89.51,1.62,1.25,2.07,2.17.3.61.47,1.29.47,2.01v3.45h5.1v-3.45c0-.71.17-1.4.47-2.01.3-.61.73-1.14,1.24-1.58,1.03-.88,2.4-1.39,3.89-1.39.63,0,1.24.14,1.78.37.55.23,1.04.55,1.47.92.86.74,1.51,1.69,1.92,2.7.27.67.43,1.37.43,2.09,0,.71-.17,1.4-.47,2.01-.3.61-.73,1.14-1.24,1.58-1.03.88-2.4,1.39-3.89,1.39h-2.98v23.07h2.3v-20.77h.69Z"/>
            <polygon class="cls-2" points="195.13 191.04 195.13 211.81 197.42 211.81 197.42 188.74 192.32 188.74 192.32 211.81 194.62 211.81 194.62 191.04 195.13 191.04"/>
            <path class="cls-2" d="m188.91,181.08c-.53-.45-1.3-.76-2.19-.76-.26,0-.51.05-.77.16-.26.11-.53.28-.78.49-.51.43-.95,1.06-1.19,1.68-.17.41-.24.81-.24,1.11,0,.3.07.58.2.85.13.27.33.53.6.75.53.45,1.3.76,2.19.76h2.98v-3.45c0-.3-.07-.58-.2-.85-.13-.27-.33-.53-.6-.75Zm-1.5,2.76h-.69c-.34,0-.56-.11-.66-.19.1-.36.48-.89.74-1.03.32.02.52.13.61.2v1.02Z"/>
            <path class="cls-2" d="m204.77,185.68c.48-.28.84-.66,1.04-1.06.13-.27.2-.55.2-.85,0-.22-.04-.51-.13-.81-.09-.3-.23-.62-.41-.92-.36-.61-.88-1.14-1.4-1.43-.35-.2-.69-.29-1.03-.29-.66,0-1.26.17-1.75.45-.48.28-.84.66-1.04,1.06-.13.27-.2.55-.2.85v3.45h2.98c.66,0,1.26-.17,1.75-.45Zm-2.43-2.86c.09-.07.29-.19.61-.2.27.14.65.68.75,1.03-.11.08-.33.19-.67.19h-.69v-1.02Z"/>
            <path class="cls-3" d="m183.13,165.68c3.1-4.51,3.84-9.48,1.87-11.64-.16-.18-.34-.34-.54-.48-2.63-1.81-7.48.69-10.84,5.57-3.36,4.88-3.95,10.3-1.32,12.11.38.26.8.43,1.25.51,2.73.53,6.71-1.9,9.59-6.08Z"/>
            <path class="cls-5" d="m181.25,213.79c.22,7,6.11,12.61,13.37,12.61s13.16-5.61,13.37-12.61h-26.75Z"/>
          </g>
          <g>
            <rect class="cls-4" x="176.83" y="123.78" width="5.9" height="16.75" rx="2.66" ry="2.66" transform="translate(-34.53 70.04) rotate(-20.16)"/>
            <rect class="cls-4" x="237.22" y="167.12" width="5.9" height="16.75" rx="2.66" ry="2.66" transform="translate(64.68 415.67) rotate(-90)"/>
            <rect class="cls-4" x="228.38" y="140.59" width="5.9" height="16.75" rx="2.66" ry="2.66" transform="translate(256 422.99) rotate(-127.92)"/>
            <rect class="cls-4" x="205.78" y="123.88" width="5.9" height="16.75" rx="2.66" ry="2.66" transform="translate(358.68 328.64) rotate(-159.72)"/>
            <rect class="cls-4" x="227.4" y="193.65" width="5.9" height="16.75" rx="2.66" ry="2.66" transform="translate(-72.74 246.92) rotate(-49.68)"/>
            <rect class="cls-4" x="153.69" y="191.69" width="5.9" height="16.75" rx="2.66" ry="2.66" transform="translate(105.46 448.94) rotate(-130.32)"/>
          </g>
        </g>
        <g id="Pak">
          <g>
            <polygon class="cls-1" points="29.03 86.93 96.95 40.58 177.89 49.32 110.81 95.46 56.5 90.6 99.28 60.33 99.9 55.76 51.09 90.2 29.03 86.93"/>
            <polygon class="cls-1" points="52.13 90.81 55.69 91.16 63.49 120.23 60.15 121.07 52.13 90.81"/>
            <path class="cls-1" d="m61.9,121.73c2.07-.52,4.17.73,4.69,2.8s-.73,4.16-2.8,4.69-4.17-.73-4.69-2.8.73-4.17,2.8-4.69"/>
            <path class="cls-1" d="m75.34,151.3l-4.46-14.14c-.96-3.04-3.85-8.09-6.94-7.31s-3.23,6.61-2.63,9.73l2.79,14.56,11.23-2.84Z"/>
            <path class="cls-1" d="m60.26,94.96l51.82,5.49,42.99-29.44,6.51,25.78c-16.76,6.32-30.65,17.16-42.57,31.1-15.53-5.87-32.66-8.79-52.24-7.15l-6.51-25.78Z"/>
            <path class="cls-2" d="m186.31,114.33c-6.15-5.75-14.51-9.75-25.05-12.01-14.94,5.9-27.58,15.42-38.57,27.54h13.35c9.84,0,17.11,2.05,21.8,6.15s7.03,10.37,7.03,18.81c0,6.02-1.37,10.94-4.1,14.77-2.74,3.83-6.6,6.64-11.6,8.44-5,1.8-10.9,2.7-17.7,2.7h-11.95v-48c-11.18-4.17-23.18-6.8-36.33-7.32v146.02h.07c7.16-10.38,20.48-17.88,36.25-19.64v-41.3h15.59c12.5,0,23.01-1.54,31.52-4.63,8.51-3.08,15.33-7.28,20.45-12.6,5.12-5.31,8.81-11.39,11.07-18.22,2.26-6.83,3.4-14,3.4-21.5,0-16.64-5.08-29.71-15.23-39.2Z"/>
          </g>
        </g>
      </g>
    </g>
  </g>
</svg>