<?xml version="1.0" encoding="UTF-8"?>
<svg id="Layer_2" data-name="Layer 2" xmlns="http://www.w3.org/2000/svg" viewBox="0 0 815.58 347.61">
  <defs>
    <style>
      .cls-1, .cls-2 {
        fill: #f17521;
      }

      .cls-1, .cls-3 {
        fill-rule: evenodd;
      }

      .cls-4 {
        fill: #fff;
      }

      .cls-5 {
        fill: #f27123;
      }

      .cls-3, .cls-6 {
        fill: #182b4e;
      }

      .cls-7 {
        fill: #ef843c;
      }
    </style>
  </defs>
  <g id="Logo">
    <g>
      <g id="Lines">
        <path class="cls-1" d="m501.34,300.23c-204.33,18.19-372.56-15.16-378.19-56.1-.84-6.09.04-11.85,2.49-17.28-16.3,10.4-24.69,21.29-21.05,34.96,12,45,173,74,369,53,163.32-17.5,293.5-53.37,342-89-63.58,32.19-177.44,62.24-314.24,74.42Z"/>
        <path class="cls-3" d="m468.25,326.05c-204.33,18.19-372.56-15.16-378.19-56.1-.84-6.09.04-11.85,2.49-17.28-16.3,10.4-24.69,21.29-21.05,34.96,12,45,173,74,369,53,163.32-17.5,293.5-53.37,342-89-63.58,32.19-177.44,62.24-314.24,74.42Z"/>
      </g>
      <g id="AI-Powered">
        <path class="cls-6" d="m196.2,262.49l-2.07-6.8h-10.41l-2.07,6.8h-6.52l10.08-28.67h7.4l10.12,28.67h-6.52Zm-3.52-11.88l-2.07-6.64c-.13-.44-.3-1.01-.52-1.71s-.43-1.41-.64-2.13-.39-1.35-.52-1.88c-.13.53-.31,1.19-.54,1.98-.23.79-.45,1.53-.65,2.24-.21.7-.36,1.2-.45,1.5l-2.05,6.64h7.44Z"/>
        <path class="cls-6" d="m208.31,262.49v-28.55h6.05v28.55h-6.05Z"/>
        <path class="cls-6" d="m221.15,254.21v-4.88h10.49v4.88h-10.49Z"/>
        <path class="cls-6" d="m247.55,233.93c3.68,0,6.37.79,8.07,2.37,1.69,1.58,2.54,3.76,2.54,6.53,0,1.25-.19,2.44-.57,3.58-.38,1.14-.99,2.15-1.85,3.04-.85.89-1.99,1.58-3.41,2.1-1.42.51-3.17.77-5.25.77h-2.6v10.16h-6.05v-28.55h9.12Zm-.31,4.96h-2.75v8.48h1.99c1.13,0,2.12-.15,2.95-.45.83-.3,1.48-.77,1.93-1.41.46-.64.68-1.46.68-2.46,0-1.41-.39-2.45-1.17-3.13s-1.99-1.03-3.63-1.03Z"/>
        <path class="cls-6" d="m291.46,248.17c0,2.2-.27,4.2-.82,6.01s-1.38,3.36-2.49,4.66-2.52,2.3-4.23,3c-1.71.7-3.72,1.04-6.05,1.04s-4.35-.35-6.05-1.04c-1.71-.7-3.12-1.7-4.23-3s-1.94-2.86-2.49-4.67-.82-3.82-.82-6.04c0-2.96.48-5.53,1.46-7.72.97-2.19,2.46-3.9,4.48-5.11,2.02-1.21,4.58-1.82,7.7-1.82s5.65.61,7.65,1.82c2,1.21,3.48,2.92,4.45,5.12.97,2.2,1.46,4.79,1.46,7.75Zm-20.84,0c0,1.99.25,3.71.75,5.15.5,1.44,1.29,2.55,2.35,3.32,1.07.77,2.45,1.16,4.14,1.16s3.11-.39,4.18-1.16c1.07-.77,1.85-1.88,2.33-3.32s.73-3.15.73-5.15c0-3-.56-5.35-1.68-7.07-1.12-1.72-2.96-2.58-5.53-2.58-1.71,0-3.1.39-4.17,1.16s-1.86,1.88-2.36,3.32c-.5,1.44-.75,3.16-.75,5.17Z"/>
        <path class="cls-6" d="m334.46,233.93l-7.27,28.55h-6.89l-3.87-15c-.08-.29-.18-.72-.31-1.31-.13-.59-.27-1.23-.41-1.92-.14-.7-.27-1.35-.38-1.97-.11-.62-.19-1.11-.22-1.47-.04.36-.11.85-.22,1.46-.11.61-.23,1.26-.37,1.95s-.27,1.33-.4,1.93c-.13.6-.23,1.05-.31,1.37l-3.85,14.96h-6.88l-7.29-28.55h5.96l3.65,15.59c.1.47.22,1.03.36,1.68s.27,1.33.41,2.04.26,1.39.37,2.05c.11.66.19,1.23.24,1.71.06-.5.15-1.07.25-1.73.1-.66.22-1.33.34-2.01.12-.68.25-1.32.38-1.9.13-.59.25-1.06.35-1.43l4.16-16h5.72l4.16,16c.09.35.2.82.32,1.42.12.59.25,1.23.38,1.92.13.69.25,1.36.36,2.02.11.66.19,1.23.24,1.71.09-.65.22-1.44.38-2.37.16-.93.34-1.86.53-2.78.19-.92.35-1.7.5-2.32l3.63-15.59h5.96Z"/>
        <path class="cls-6" d="m356.5,262.49h-16.45v-28.55h16.45v4.96h-10.39v6.27h9.67v4.96h-9.67v7.36h10.39v5Z"/>
        <path class="cls-6" d="m372.77,233.93c2.59,0,4.73.31,6.42.94,1.69.62,2.94,1.57,3.76,2.83s1.23,2.86,1.23,4.79c0,1.3-.25,2.44-.74,3.42-.5.98-1.15,1.8-1.95,2.48-.81.68-1.68,1.23-2.62,1.66l8.4,12.44h-6.72l-6.82-10.96h-3.22v10.96h-6.05v-28.55h8.32Zm-.43,4.96h-1.84v7.71h1.95c2,0,3.44-.33,4.31-1.01.87-.67,1.3-1.66,1.3-2.96s-.47-2.32-1.4-2.89c-.93-.57-2.37-.86-4.33-.86Z"/>
        <path class="cls-6" d="m409.31,262.49h-16.45v-28.55h16.45v4.96h-10.39v6.27h9.67v4.96h-9.67v7.36h10.39v5Z"/>
        <path class="cls-6" d="m440.95,247.94c0,3.22-.62,5.9-1.85,8.06s-3.01,3.78-5.34,4.86c-2.33,1.09-5.14,1.63-8.42,1.63h-8.09v-28.55h8.96c2.99,0,5.59.53,7.79,1.59,2.2,1.06,3.91,2.63,5.12,4.71s1.82,4.65,1.82,7.71Zm-6.29.16c0-2.11-.31-3.84-.93-5.21-.62-1.36-1.53-2.37-2.73-3.02-1.21-.65-2.69-.98-4.46-.98h-3.22v18.59h2.6c2.96,0,5.15-.79,6.59-2.36,1.44-1.58,2.16-3.92,2.16-7.03Z"/>
        <path class="cls-6" d="m461.26,262.49v-28.55h6.05v23.55h11.58v5h-17.64Z"/>
        <path class="cls-6" d="m502.31,262.49h-16.45v-28.55h16.45v4.96h-10.39v6.27h9.67v4.96h-9.67v7.36h10.39v5Z"/>
        <path class="cls-6" d="m527.74,262.49l-2.07-6.8h-10.41l-2.07,6.8h-6.52l10.08-28.67h7.4l10.12,28.67h-6.52Zm-3.52-11.88l-2.07-6.64c-.13-.44-.3-1.01-.52-1.71s-.43-1.41-.64-2.13-.39-1.35-.52-1.88c-.13.53-.31,1.19-.54,1.98-.23.79-.45,1.53-.65,2.24-.21.7-.36,1.2-.45,1.5l-2.05,6.64h7.44Z"/>
        <path class="cls-6" d="m548.18,233.93c2.59,0,4.73.31,6.42.94,1.69.62,2.94,1.57,3.76,2.83s1.23,2.86,1.23,4.79c0,1.3-.25,2.44-.74,3.42-.5.98-1.15,1.8-1.95,2.48-.81.68-1.68,1.23-2.62,1.66l8.4,12.44h-6.72l-6.82-10.96h-3.22v10.96h-6.05v-28.55h8.32Zm-.43,4.96h-1.84v7.71h1.95c2,0,3.44-.33,4.31-1.01.87-.67,1.3-1.66,1.3-2.96s-.47-2.32-1.4-2.89c-.93-.57-2.37-.86-4.33-.86Z"/>
        <path class="cls-6" d="m593.6,262.49h-7.7l-12.42-21.6h-.18c.05.9.1,1.8.14,2.71s.08,1.82.12,2.72.08,1.81.12,2.72v13.44h-5.41v-28.55h7.64l12.4,21.39h.14c-.03-.89-.06-1.76-.1-2.64s-.08-1.75-.11-2.62c-.03-.87-.06-1.75-.09-2.62v-13.52h5.45v28.55Z"/>
        <path class="cls-6" d="m602.79,262.49v-28.55h6.05v28.55h-6.05Z"/>
        <path class="cls-6" d="m643.36,262.49h-7.7l-12.42-21.6h-.18c.05.9.1,1.8.14,2.71s.08,1.82.12,2.72.08,1.81.12,2.72v13.44h-5.41v-28.55h7.64l12.4,21.39h.14c-.03-.89-.06-1.76-.1-2.64s-.08-1.75-.11-2.62-.06-1.75-.09-2.62v-13.52h5.45v28.55Z"/>
        <path class="cls-6" d="m663.39,246.45h11.33v14.8c-1.5.5-3.05.89-4.67,1.18s-3.44.44-5.49.44c-2.84,0-5.25-.56-7.23-1.68s-3.48-2.77-4.51-4.96-1.54-4.88-1.54-8.07c0-3,.58-5.59,1.73-7.77s2.84-3.88,5.06-5.08,4.93-1.8,8.13-1.8c1.51,0,3,.16,4.47.49s2.81.75,4,1.27l-2.01,4.84c-.87-.44-1.87-.81-2.99-1.11s-2.29-.45-3.52-.45c-1.76,0-3.28.4-4.58,1.21s-2.3,1.94-3.01,3.39-1.06,3.16-1.06,5.13c0,1.86.25,3.51.76,4.95s1.31,2.57,2.4,3.38,2.52,1.22,4.28,1.22c.86,0,1.58-.04,2.18-.13s1.15-.17,1.67-.26v-5.96h-5.41v-5.04Z"/>
      </g>
      <g id="Bulb">
        <g>
          <path class="cls-2" d="m780.12,51.16c0-7.33-2.97-13.96-7.77-18.77-4.81-4.8-11.43-7.77-18.77-7.77-.13,0-.25,0-.38,0-7.23.1-13.76,3.13-18.5,7.94-4.74,4.81-7.66,11.39-7.66,18.6,0,.11,0,.21,0,.32.07,5.66,1.91,10.89,4.99,15.17,4.97,6.9,7.86,15.08,8.08,23.58h2.07c-.19-7.39-2.34-14.51-6.03-20.53-2.49-4.06-3.98-9.04-4.04-14.41-.02-1.75.12-3.45.39-5.11-.46-.09-.88-.26-1.25-.51-2.63-1.81-2.03-7.23,1.32-12.11,3.36-4.88,8.21-7.37,10.84-5.57.2.14.38.3.54.48,2.81-1.67,5.97-2.63,9.32-2.69,12-.2,21.78,11.16,21.78,25.21,0,5.6-1.56,10.77-4.19,14.96-3.7,5.88-5.71,12.99-5.89,20.29h2.07c.21-8.38,2.9-16.55,7.9-23.32,3.25-4.41,5.18-9.85,5.18-15.75Z"/>
          <rect class="cls-2" x="753.59" y="69.46" width=".51" height="20.77"/>
          <path class="cls-2" d="m745.03,62.07c.11.08.33.19.66.19h.69v-1.02c-.09-.07-.29-.19-.61-.2-.26.14-.64.67-.74,1.03Z"/>
          <path class="cls-7" d="m775.06,54.99c0-14.04-9.78-25.4-21.78-25.21-3.34.05-6.51,1.02-9.32,2.69,1.98,2.16,1.24,7.13-1.87,11.64-2.88,4.18-6.85,6.61-9.59,6.08-.27,1.65-.41,3.36-.39,5.11.05,5.38,1.54,10.35,4.04,14.41,3.69,6.02,5.84,13.14,6.03,20.53h4.19v-20.77h-.69c-4.35,0-7.9-3.26-7.9-7.27s3.38-8.36,7.9-8.36,7.9,3.26,7.9,7.27v1.16h.51v-1.16c0-4.01,3.54-7.27,7.9-7.27s7.9,4.42,7.9,8.36-3.54,7.27-7.9,7.27h-.69v20.77h3.68c.18-7.3,2.18-14.4,5.89-20.29,2.63-4.18,4.19-9.36,4.19-14.96Z"/>
          <path class="cls-2" d="m762.66,62.07c-.1-.35-.48-.89-.75-1.03-.32.02-.52.13-.61.2v1.02h.69c.34,0,.56-.11.67-.19Z"/>
          <path class="cls-2" d="m761.99,69.46c4.35,0,7.9-3.26,7.9-7.27s-3.38-8.36-7.9-8.36-7.9,3.26-7.9,7.27v1.16h-.51v-1.16c0-4.01-3.54-7.27-7.9-7.27s-7.9,4.42-7.9,8.36,3.54,7.27,7.9,7.27h.69v20.77h2.3v-23.07h-2.98c-1.12,0-2.17-.29-3.05-.8-.89-.51-1.62-1.25-2.07-2.17-.3-.61-.47-1.29-.47-2.01,0-.54.09-1.06.25-1.58.16-.51.38-1.01.67-1.49.57-.95,1.36-1.8,2.37-2.38.68-.38,1.46-.63,2.31-.63,1.12,0,2.17.29,3.05.8.89.51,1.62,1.25,2.07,2.17.3.61.47,1.29.47,2.01v3.45h5.1v-3.45c0-.71.17-1.4.47-2.01.3-.61.73-1.14,1.24-1.58,1.03-.88,2.4-1.39,3.89-1.39.63,0,1.24.14,1.78.37.55.23,1.04.55,1.47.92.86.74,1.51,1.69,1.92,2.7.27.67.43,1.37.43,2.09,0,.71-.17,1.4-.47,2.01-.3.61-.73,1.14-1.24,1.58-1.03.88-2.4,1.39-3.89,1.39h-2.98v23.07h2.3v-20.77h.69Z"/>
          <polygon class="cls-2" points="754.1 69.46 754.1 90.24 756.39 90.24 756.39 67.17 751.29 67.17 751.29 90.24 753.59 90.24 753.59 69.46 754.1 69.46"/>
          <path class="cls-2" d="m747.88,59.5c-.53-.45-1.3-.76-2.19-.76-.26,0-.51.05-.77.16-.26.11-.53.28-.78.49-.51.43-.95,1.06-1.19,1.68-.17.41-.24.81-.24,1.11,0,.3.07.58.2.85.13.27.33.53.6.75.53.45,1.3.76,2.19.76h2.98v-3.45c0-.3-.07-.58-.2-.85-.13-.27-.33-.53-.6-.75Zm-1.5,2.76h-.69c-.34,0-.56-.11-.66-.19.1-.36.48-.89.74-1.03.32.02.52.13.61.2v1.02Z"/>
          <path class="cls-2" d="m763.74,64.1c.48-.28.84-.66,1.04-1.06.13-.27.2-.55.2-.85,0-.22-.04-.51-.13-.81-.09-.3-.23-.62-.41-.92-.36-.61-.88-1.14-1.4-1.43-.35-.2-.69-.29-1.03-.29-.66,0-1.26.17-1.75.45-.48.28-.84.66-1.04,1.06-.13.27-.2.55-.2.85v3.45h2.98c.66,0,1.26-.17,1.75-.45Zm-2.43-2.86c.09-.07.29-.19.61-.2.27.14.65.68.75,1.03-.11.08-.33.19-.67.19h-.69v-1.02Z"/>
          <path class="cls-4" d="m742.1,44.11c3.1-4.51,3.84-9.48,1.87-11.64-.16-.18-.34-.34-.54-.48-2.63-1.81-7.48.69-10.84,5.57-3.36,4.88-3.95,10.3-1.32,12.11.38.26.8.43,1.25.51,2.73.53,6.71-1.9,9.59-6.08Z"/>
          <path class="cls-6" d="m740.22,92.21c.22,7,6.11,12.61,13.37,12.61s13.16-5.61,13.37-12.61h-26.75Z"/>
        </g>
        <g>
          <rect class="cls-5" x="735.8" y="2.2" width="5.9" height="16.75" rx="2.66" ry="2.66" transform="translate(41.59 255.19) rotate(-20.16)"/>
          <rect class="cls-5" x="712.66" y="18.03" width="5.9" height="16.75" rx="2.66" ry="2.66" transform="translate(232.43 554.92) rotate(-49.68)"/>
          <rect class="cls-5" x="705.78" y="46.53" width="5.9" height="16.75" rx="2.66" ry="2.66" transform="translate(653.83 763.63) rotate(-90)"/>
          <rect class="cls-5" x="796.19" y="45.54" width="5.9" height="16.75" rx="2.66" ry="2.66" transform="translate(745.22 853.06) rotate(-90)"/>
          <rect class="cls-5" x="787.35" y="19.01" width="5.9" height="16.75" rx="2.66" ry="2.66" transform="translate(1254.42 667.63) rotate(-127.92)"/>
          <rect class="cls-5" x="764.75" y="2.3" width="5.9" height="16.75" rx="2.66" ry="2.66" transform="translate(1484.12 286.74) rotate(-159.72)"/>
          <rect class="cls-5" x="786.37" y="72.08" width="5.9" height="16.75" rx="2.66" ry="2.66" transform="translate(217.24 630.19) rotate(-49.68)"/>
          <rect class="cls-5" x="712.66" y="70.11" width="5.9" height="16.75" rx="2.66" ry="2.66" transform="translate(1118.82 674.88) rotate(-130.32)"/>
        </g>
      </g>
      <g id="Quiz">
        <path class="cls-6" d="m661.06,100.11v107.88h-28.09l-4.67-13.43h-2.19c-2.22,3.62-5.03,6.56-8.43,8.81-3.4,2.25-7.16,3.9-11.28,4.95-4.13,1.05-8.41,1.57-12.85,1.57-7.05,0-13.41-1.37-19.09-4.09-5.68-2.73-10.19-7.01-13.52-12.85-3.33-5.84-5-13.36-5-22.57v-70.27h37.23v58.94c0,6.98,1,12.3,3,15.95,2,3.65,5.28,5.48,9.85,5.48s8.33-1.27,10.9-3.81c2.57-2.54,4.36-6.28,5.38-11.24,1.01-4.95,1.52-10.98,1.52-18.09v-47.23h37.23Z"/>
        <path class="cls-6" d="m811.81,207.99h-89.31v-21.23l44.66-58.18h-42.08v-28.47h84.65v23.04l-42.75,56.37h44.85v28.47Z"/>
        <path class="cls-6" d="m695.97,56.7c5.33,0,9.98,1.11,13.95,3.33,3.97,2.22,5.95,6.63,5.95,13.23s-1.98,10.74-5.95,13c-3.97,2.25-8.62,3.38-13.95,3.38s-10.11-1.13-13.95-3.38c-3.84-2.25-5.76-6.58-5.76-13s1.92-11.01,5.76-13.23c3.84-2.22,8.49-3.33,13.95-3.33Zm18.47,43.42v107.88h-37.23v-107.88h37.23Z"/>
        <path class="cls-6" d="m528.46,219.97l-15.61-17.97c7.11-3.94,12.87-9.03,17.28-15.28,4.41-6.25,7.65-13.49,9.71-21.71,2.06-8.22,3.09-17.15,3.09-26.8,0-14.47-2.32-27.07-6.95-37.8-4.63-10.73-11.92-19.04-21.85-24.95-9.93-5.9-22.84-8.85-38.7-8.85s-28.44,2.94-38.47,8.81c-10.03,5.87-17.44,14.16-22.23,24.85-4.79,10.7-7.19,23.28-7.19,37.75,0,10.85,1.33,20.69,4,29.52,2.67,8.82,6.76,16.39,12.28,22.71,5.52,6.32,12.55,11.17,21.09,14.57,8.54,3.39,18.65,5.09,30.33,5.09h1.33l7.55,10.07h44.34Zm-53.22-41.4c-6.66,0-12.06-1.62-16.19-4.86-4.13-3.24-7.14-7.87-9.05-13.9-1.9-6.03-2.86-13.23-2.86-21.61s.94-15.62,2.81-21.71c1.87-6.09,4.89-10.79,9.05-14.09,4.16-3.3,9.63-4.95,16.42-4.95,10.22,0,17.42,3.65,21.61,10.95,4.19,7.3,6.28,17.23,6.28,29.8,0,8.38-.9,15.58-2.71,21.61-1.81,6.03-4.76,10.66-8.85,13.9-4.09,3.24-9.6,4.86-16.52,4.86Z"/>
      </g>
      <g id="Pak">
        <g>
          <path class="cls-2" d="m225.79,97.95c13.65,0,24.31,3.38,31.99,10.14,7.68,6.76,11.52,16.39,11.52,28.9v70.74h-25.8l-7.14-14.28h-.76c-3.05,3.81-6.17,6.9-9.38,9.28-3.21,2.38-6.87,4.13-11,5.24-4.13,1.11-9.17,1.67-15.14,1.67s-11.81-1.27-16.76-3.81-8.85-6.38-11.71-11.52-4.28-11.65-4.28-19.52c0-11.55,4-20.12,12-25.71,8-5.58,19.58-8.73,34.75-9.43l18-.57v-1.52c0-4.82-1.19-8.25-3.57-10.28-2.38-2.03-5.57-3.05-9.57-3.05-4.25,0-9,.75-14.23,2.24-5.24,1.49-10.49,3.41-15.76,5.76l-10.76-24.57c6.22-3.17,13.27-5.58,21.14-7.24,7.87-1.65,16.69-2.48,26.47-2.48Zm6.47,61.6l-8.57.38c-6.86.25-11.66,1.44-14.42,3.57-2.76,2.13-4.14,5.16-4.14,9.09,0,3.68.98,6.4,2.95,8.14,1.97,1.75,4.57,2.62,7.81,2.62,4.51,0,8.36-1.43,11.57-4.28,3.2-2.86,4.81-6.57,4.81-11.14v-8.38Z"/>
          <path class="cls-2" d="m322.3,59.58v58.27c0,4.38-.18,9.25-.52,14.62-.35,5.37-.87,10.24-1.57,14.62h.76c1.46-2.22,3.3-5.01,5.52-8.38,2.22-3.36,4.22-6.16,6-8.38l24.18-30.47h41.51l-37.42,45.89,39.8,61.98h-42.56l-23.61-38.66-12.09,9.24v29.42h-37.42V59.58h37.42Z"/>
        </g>
        <g>
          <polygon class="cls-1" points="0 46.35 67.92 0 148.86 8.75 81.78 54.89 27.47 50.03 70.25 19.76 70.87 15.18 22.06 49.63 0 46.35"/>
          <polygon class="cls-1" points="23.1 50.23 26.66 50.58 34.46 79.65 31.12 80.49 23.1 50.23"/>
          <path class="cls-1" d="m32.87,81.16c2.07-.52,4.17.73,4.69,2.8s-.73,4.16-2.8,4.69-4.17-.73-4.69-2.8.73-4.17,2.8-4.69"/>
          <path class="cls-1" d="m46.31,110.72l-4.46-14.14c-.96-3.04-3.85-8.09-6.94-7.31s-3.23,6.61-2.63,9.73l2.79,14.56,11.23-2.84Z"/>
          <path class="cls-1" d="m31.23,54.39l51.82,5.49,42.99-29.44,6.51,25.78c-16.76,6.32-30.65,17.16-42.57,31.1-15.53-5.87-32.66-8.79-52.24-7.15l-6.51-25.78Z"/>
          <path class="cls-2" d="m157.28,73.76c-6.15-5.75-14.51-9.75-25.05-12.01-14.94,5.9-27.58,15.42-38.57,27.54h13.35c9.84,0,17.11,2.05,21.8,6.15s7.03,10.37,7.03,18.81c0,6.02-1.37,10.94-4.1,14.77-2.74,3.83-6.6,6.64-11.6,8.44-5,1.8-10.9,2.7-17.7,2.7h-11.95v-48c-11.18-4.17-23.18-6.8-36.33-7.32v146.02h.07c7.16-10.38,20.48-17.88,36.25-19.64v-41.3h15.59c12.5,0,23.01-1.54,31.52-4.63,8.51-3.08,15.33-7.28,20.45-12.6,5.12-5.31,8.81-11.39,11.07-18.22,2.26-6.83,3.4-14,3.4-21.5,0-16.64-5.08-29.71-15.23-39.2Z"/>
        </g>
      </g>
    </g>
  </g>
</svg>